<svg xmlns="http://www.w3.org/2000/svg" width="24" height="24" viewBox="0 0 448 512">
    <path fill="#16171A" d="M432 416h-23.41L277.88 53.69A32 32 0 0 0 247.58 32h-47.16a32 32 0 0 0-30.3 21.69L39.41 416H16a16 16 0 0 0-16 16v32a16 16 0 0 0 16 16h128a16 16 0 0 0 16-16v-32a16 16 0 0 0-16-16h-19.58l23.3-64h152.56l23.3 64H304a16 16 0 0 0-16 16v32a16 16 0 0 0 16 16h128a16 16 0 0 0 16-16v-32a16 16 0 0 0-16-16zM176.85 272L224 142.51 271.15 272z"></path>
    <path fill="#16171A" transform="translate(300, -112) scale(0.5)" d="M41 288h238c21.4 0 32.1 25.9 17 41L177 448c-9.4 9.4-24.6 9.4-33.9 0L24 329c-15.1-15.1-4.4-41 17-41z"></path>
</svg>