<?xml version="1.0" encoding="UTF-8"?>
<svg width="24px" height="24px" viewBox="0 0 24 24" version="1.1" xmlns="http://www.w3.org/2000/svg" xmlns:xlink="http://www.w3.org/1999/xlink">
    <!-- Generator: Sketch 53.2 (72643) - https://sketchapp.com -->
    <title>icon_24_link</title>
    <desc>Created with Sketch.</desc>
    <g id="Symbols" stroke="none" stroke-width="1" fill="none" fill-rule="evenodd">
        <g id="Icon/24/Link" stroke="#6291EB" stroke-width="2">
            <g id="Group" transform="translate(12.000000, 11.998835) rotate(-45.000000) translate(-12.000000, -11.998835) translate(9.000000, 2.498835)">
                <path d="M3,12 C1.34314575,12 0,10.6568542 0,9 L0,3 C0,1.34314575 1.34314575,4.4408921e-16 3,0 L3,0 C4.65685425,-4.4408921e-16 6,1.34314575 6,3 L6,5" id="Path"></path>
                <path d="M3,19 C1.34314575,19 0,17.6568542 0,16 L0,10 C0,8.34314575 1.34314575,7 3,7 L3,7 C4.65685425,7 6,8.34314575 6,10 L6,12" id="Path-Copy" transform="translate(3.000000, 13.000000) scale(-1, -1) translate(-3.000000, -13.000000) "></path>
            </g>
        </g>
    </g>
</svg>