<?xml version="1.0" standalone="no"?>
<!DOCTYPE svg PUBLIC "-//W3C//DTD SVG 20010904//EN"
 "http://www.w3.org/TR/2001/REC-SVG-20010904/DTD/svg10.dtd">
<svg version="1.0" xmlns="http://www.w3.org/2000/svg"
 width="308.000000pt" height="308.000000pt" viewBox="0 0 308.000000 308.000000"
 preserveAspectRatio="xMidYMid meet">
<metadata>
Created by potrace 1.11, written by Peter Selinger 2001-2013
</metadata>
<g transform="translate(0.000000,308.000000) scale(0.100000,-0.100000)"
fill="#000000" stroke="none">
<path d="M1355 2809 c-297 -50 -562 -174 -752 -352 -35 -33 -71 -72 -79 -86
-15 -25 -19 -26 -83 -23 -74 4 -113 -9 -164 -57 -40 -36 -56 -70 -63 -133 -8
-65 22 -144 67 -183 28 -23 38 -45 21 -45 -17 0 -44 -64 -45 -108 0 -64 36
-119 113 -174 34 -23 57 -44 52 -46 -10 -3 -77 11 -105 23 -16 7 -17 3 -11
-36 11 -78 35 -162 72 -254 34 -87 36 -94 35 -212 -1 -113 -10 -182 -50 -373
-19 -92 -49 -192 -74 -246 l-18 -41 -73 -8 c-40 -3 -87 -13 -105 -20 -64 -27
-38 -35 116 -35 l148 0 -10 45 c-10 45 4 146 38 265 7 25 23 113 36 195 12 83
30 186 39 229 l16 80 46 -65 c48 -67 46 -59 88 -304 4 -27 13 -61 18 -75 6
-14 18 -54 27 -90 10 -36 27 -95 37 -133 11 -37 18 -73 15 -81 -4 -11 15 -15
86 -21 81 -6 92 -5 104 11 13 17 8 20 -69 37 -45 10 -83 19 -84 20 -1 1 -17
49 -37 107 -32 96 -68 261 -80 369 l-5 44 36 -35 c70 -66 199 -156 289 -202
48 -24 52 -24 57 -8 5 15 -9 122 -17 127 -1 1 -24 17 -51 35 -52 35 -140 119
-133 127 3 2 39 -10 81 -27 42 -16 78 -30 80 -30 2 0 0 16 -4 36 -10 42 -19
49 -75 65 -98 27 -222 109 -258 172 -25 43 -53 116 -67 175 -8 32 -7 33 16 28
14 -4 49 -18 79 -31 30 -14 100 -41 155 -59 56 -19 103 -36 105 -38 2 -2 18
-71 35 -153 16 -83 37 -181 46 -220 35 -156 36 -203 8 -325 -21 -88 -42 -145
-80 -210 l-32 -55 135 -3 c75 -1 138 0 142 3 10 11 -21 23 -78 30 -97 11 -101
14 -101 49 0 18 9 59 19 92 11 32 27 94 36 137 11 48 26 89 40 105 l23 27 22
-20 c48 -43 192 -266 241 -372 l24 -52 118 -1 c90 0 118 3 115 12 -5 14 -31
21 -128 37 -59 9 -69 14 -105 55 -69 77 -163 285 -238 527 -32 101 -74 297
-65 303 2 2 39 -1 83 -5 117 -11 407 -10 505 1 47 6 117 18 155 28 l70 17 3
38 c2 20 2 37 0 37 -2 0 -19 -4 -38 -10 -114 -33 -230 -43 -460 -43 -129 1
-255 5 -280 10 -44 8 -45 10 -48 48 -2 37 0 41 35 60 55 30 98 103 97 169 -2
83 -45 145 -129 185 -50 23 -49 21 -36 136 18 154 93 321 206 459 l36 45 182
-1 c104 0 200 4 223 11 38 10 40 13 36 42 l-5 31 -51 -6 c-28 -4 -112 -9 -186
-13 -152 -7 -155 -4 -59 59 27 17 47 33 45 35 -5 5 -91 -37 -145 -71 -41 -26
-49 -28 -109 -21 -36 4 -72 9 -80 12 -18 7 88 69 195 113 46 18 81 35 79 37
-7 7 -236 -71 -301 -104 -54 -27 -76 -33 -103 -28 -42 8 -33 22 40 57 140 69
300 126 423 150 28 5 52 12 54 14 9 8 -68 1 -174 -17z m-371 -215 c26 -10 19
-20 -46 -65 -80 -54 -221 -173 -241 -202 -8 -12 -18 -19 -21 -16 -10 10 73
125 123 171 123 113 146 127 185 112z m186 -56 c19 -5 41 -11 48 -14 8 -2 -8
-25 -42 -60 -70 -72 -137 -172 -186 -278 l-39 -84 -57 19 c-81 27 -164 71
-164 87 0 39 200 248 304 318 51 35 56 35 136 12z m-705 -228 c4 -6 -2 -25
-13 -43 -34 -54 -102 -194 -102 -209 0 -7 -5 -20 -10 -28 -7 -12 -13 -11 -35
10 -73 68 -74 161 -2 228 43 40 147 67 162 42z m329 -260 l128 -43 -4 -68 c-5
-61 -9 -73 -41 -108 -76 -84 -76 -195 1 -282 17 -19 34 -48 38 -63 6 -26 5
-28 -17 -21 -82 26 -236 123 -314 199 l-58 56 6 57 c9 103 95 330 121 319 6
-2 69 -23 140 -46z m312 -231 c74 -35 105 -133 66 -209 -23 -46 -87 -89 -133
-90 -140 -1 -216 148 -133 258 48 62 124 78 200 41z"/>
<path d="M1995 2774 c121 -42 155 -55 155 -64 0 -4 -37 -18 -82 -29 -46 -12
-94 -26 -108 -31 -14 -4 -55 -16 -92 -25 l-66 -17 10 -30 c10 -27 14 -29 44
-23 51 9 166 60 246 109 l72 44 35 -16 c138 -63 301 -195 317 -256 7 -31 2
-30 50 -10 23 10 67 17 106 17 127 0 208 -77 216 -207 6 -97 -26 -158 -113
-214 -33 -22 -52 -26 -110 -26 -76 0 -111 13 -163 62 -56 52 -34 10 23 -45
l55 -53 0 -63 c0 -60 -2 -65 -37 -98 -104 -98 -271 -211 -403 -271 -69 -32
-70 -33 -70 -70 0 -37 1 -38 28 -32 40 9 274 125 380 189 50 30 96 55 102 55
13 0 13 -41 0 -150 -12 -105 -37 -202 -81 -315 -62 -160 -227 -324 -415 -414
-72 -35 -82 -43 -88 -72 -3 -18 -4 -34 -1 -37 7 -7 160 61 281 125 55 29 104
53 107 53 3 0 -3 -21 -14 -47 -11 -27 -27 -68 -36 -93 -8 -25 -35 -87 -59
-137 -51 -106 -61 -114 -174 -133 -89 -16 -120 -26 -120 -40 0 -6 54 -10 149
-10 146 0 149 0 155 22 3 13 6 31 6 41 0 10 22 75 49 145 27 70 62 163 77 207
24 69 37 90 95 150 37 38 70 67 74 64 3 -4 10 -40 14 -80 10 -87 49 -232 91
-344 16 -44 33 -94 36 -111 l6 -32 -89 -11 c-107 -15 -135 -22 -141 -38 -3
-10 39 -13 187 -13 l191 0 -44 58 c-108 139 -165 342 -166 591 0 84 3 97 24
125 48 64 116 199 150 300 48 144 63 293 42 431 -13 93 -13 102 4 125 68 97
80 199 35 293 -29 62 -49 85 -112 129 -45 30 -54 33 -136 34 -83 2 -90 4 -125
34 -55 48 -163 117 -234 149 -35 15 -83 37 -108 49 -54 24 -251 82 -276 81
-11 0 13 -11 51 -25z m835 -954 c0 -92 -80 -323 -125 -360 -17 -14 -18 -13
-12 10 11 45 37 214 37 245 0 21 13 45 43 78 46 52 57 57 57 27z"/>
<path d="M1734 2683 c3 -10 10 -45 15 -78 5 -33 16 -94 25 -135 32 -156 66
-346 66 -372 0 -17 -6 -29 -17 -32 -10 -3 -101 -12 -203 -21 -165 -14 -204
-14 -355 -2 -93 8 -173 13 -177 10 -5 -2 -8 -17 -8 -33 0 -26 4 -30 38 -35 20
-3 69 -12 107 -20 131 -25 568 -26 626 -1 25 11 40 -75 76 -409 21 -201 24
-662 4 -815 -16 -127 -37 -234 -52 -262 -6 -11 -8 -22 -6 -25 11 -11 77 148
102 247 40 157 53 251 66 490 14 241 2 551 -27 708 -9 46 -13 89 -11 97 3 7
21 15 41 19 63 12 281 109 348 155 25 18 38 34 38 51 1 14 7 43 15 65 8 21 12
41 10 43 -2 2 -28 -12 -59 -32 -129 -83 -399 -197 -426 -181 -6 3 -10 15 -10
25 0 18 -37 125 -59 175 -5 11 -21 49 -35 85 -29 77 -80 198 -107 258 -19 42
-35 58 -25 25z"/>
<path d="M2450 1276 c-28 -27 -146 -83 -250 -121 -137 -49 -135 -47 -138 -84
-2 -17 -2 -31 0 -31 11 0 129 50 168 71 102 55 270 178 245 179 -6 0 -17 -6
-25 -14z"/>
<path d="M1899 1065 c-5 -4 -102 -17 -292 -37 -84 -9 -133 -8 -215 1 -59 7
-133 15 -164 18 l-57 5 11 -34 10 -34 90 -13 c168 -24 420 -15 586 21 50 11
52 12 52 45 0 30 -9 41 -21 28z"/>
<path d="M1086 778 c-16 -39 -6 -52 57 -69 21 -5 46 -13 55 -16 18 -8 -12 41
-56 90 -33 35 -39 34 -56 -5z"/>
<path d="M1280 760 c0 -23 34 -91 50 -100 37 -20 286 -32 421 -21 72 6 135 13
140 17 5 3 9 19 9 35 0 29 -1 30 -32 22 -18 -4 -112 -8 -208 -8 -175 1 -243
11 -352 54 -17 6 -28 7 -28 1z"/>
</g>
</svg>
