<svg width="22" height="24" viewBox="0 0 22 24" version="1.1" xmlns="http://www.w3.org/2000/svg"><title>Player_Play</title><description>Created with Sketch.</description><path d="M14.1152,6.09748337 C16.9328,7.66292087 16.2821333,10.9287959 14.1152,12.0492959 C14.1152,12.0492959 9.024,15.0237959 5.1568,17.2046084 C0.1712,20.0165459 0,14.4888584 0,14.4888584 L0,4.11354587 C0,1.79604587 1.184,-1.55589163 5.1328,0.807170872 C9.2816,3.29060837 14.1152,6.09748337 14.1152,6.09748337 Z M5.41721338,3.29674806 C5.54964169,3.3750422 5.54964169,3.3750422 5.68210644,3.45330053 C7.31069368,4.41527511 9.05471634,5.4361066 10.7986155,6.45064722 C11.4088843,6.80568069 11.9755936,7.13459544 12.4842596,7.42922422 C12.7896783,7.60612844 13.0080471,7.7323892 13.1248737,7.7998342 C14.3216856,8.46129961 14.2331278,9.70852775 13.2106834,10.2341351 L13.1202969,10.2835744 C13.0220654,10.3406305 12.8361526,10.4484644 12.5756102,10.5993458 C12.1410414,10.8510069 11.6558404,11.1314767 11.1321723,11.4335394 C9.63620205,12.2964465 8.13207551,13.1592936 6.71738624,13.9642041 C6.61412728,14.0229464 6.61412728,14.0229464 6.51084759,14.0816658 C5.66978023,14.5597797 4.88822888,15.0014195 4.17790661,15.3996482 C2.70276601,16.2267845 2.52071727,16.1583179 2.23594079,15.4447799 C2.07603648,15.0441224 2.00706458,14.5956818 2,14.368914 L2.00095966,4.10371613 C2.00095966,3.22180306 2.23917851,2.39459505 2.53812416,2.081328 C2.60042072,2.01604703 2.62917215,2.0027733 2.72116302,2.00028219 C3.00272648,1.99265746 3.46701189,2.13887534 4.10923037,2.52095005 C4.52876284,2.77061167 4.96532878,3.02953515 5.41721338,3.29674806 Z" transform="translate(-20.000000, -278.000000) translate(20.000000, 278.000000)" fill="#666CF6" stroke="none" stroke-width="1" fill-rule="evenodd"/></svg>