<svg width="1021" height="381" viewBox="0 0 1021 381" fill="none" xmlns="http://www.w3.org/2000/svg">
	<g clip-path="url(#clip0)">
		<path d="M416 229.092V216.853H468.704V229.092H449.796V279.208H434.938V229.092H416Z" fill="#213F47" />
		<path d="M487.675 279.208V216.853H513.434C518.102 216.853 522.131 217.695 525.521 219.38C528.931 221.044 531.56 223.439 533.407 226.565C535.254 229.671 536.178 233.355 536.178 237.618C536.178 241.941 535.234 245.615 533.346 248.639C531.458 251.644 528.779 253.937 525.308 255.52C521.837 257.083 517.727 257.865 512.977 257.865H496.688V245.99H510.176C512.449 245.99 514.347 245.696 515.869 245.108C517.412 244.499 518.579 243.585 519.371 242.367C520.162 241.129 520.558 239.546 520.558 237.618C520.558 235.689 520.162 234.096 519.371 232.837C518.579 231.559 517.412 230.605 515.869 229.975C514.327 229.326 512.429 229.001 510.176 229.001H502.747V279.208H487.675ZM522.781 250.71L538.309 279.208H521.867L506.644 250.71H522.781Z" fill="#213F47" />
		<path d="M556.055 279.208V216.853H599.533V229.092H571.126V241.88H597.311V254.15H571.126V266.969H599.533V279.208H556.055Z" fill="#213F47" />
		<path d="M634.07 279.208H617.873L638.912 216.853H658.976L680.015 279.208H663.817L649.172 232.563H648.685L634.07 279.208ZM631.909 254.668H665.766V266.116H631.909V254.668Z" fill="#213F47" />
		<path d="M730.119 235.547C729.916 233.314 729.012 231.579 727.409 230.341C725.826 229.082 723.562 228.453 720.619 228.453C718.67 228.453 717.047 228.707 715.748 229.214C714.448 229.722 713.474 230.422 712.825 231.315C712.175 232.188 711.84 233.193 711.82 234.329C711.779 235.263 711.962 236.085 712.368 236.795C712.794 237.506 713.403 238.135 714.195 238.683C715.007 239.211 715.981 239.678 717.118 240.084C718.254 240.49 719.533 240.845 720.954 241.149L726.313 242.367C729.398 243.037 732.118 243.93 734.473 245.047C736.847 246.163 738.837 247.493 740.44 249.035C742.064 250.578 743.292 252.354 744.124 254.363C744.957 256.373 745.383 258.626 745.403 261.123C745.383 265.061 744.388 268.44 742.419 271.262C740.45 274.083 737.619 276.245 733.925 277.747C730.251 279.249 725.815 280 720.619 280C715.402 280 710.856 279.219 706.979 277.656C703.102 276.093 700.088 273.718 697.936 270.531C695.784 267.344 694.678 263.315 694.617 258.443H709.049C709.171 260.453 709.709 262.128 710.663 263.467C711.617 264.807 712.926 265.822 714.591 266.512C716.275 267.202 718.224 267.547 720.436 267.547C722.466 267.547 724.192 267.273 725.612 266.725C727.054 266.177 728.16 265.416 728.931 264.441C729.703 263.467 730.098 262.351 730.119 261.092C730.098 259.915 729.733 258.91 729.023 258.078C728.312 257.226 727.216 256.495 725.734 255.886C724.273 255.257 722.405 254.678 720.132 254.15L713.616 252.628C708.217 251.39 703.964 249.39 700.859 246.63C697.753 243.849 696.211 240.094 696.231 235.364C696.211 231.508 697.246 228.128 699.337 225.226C701.427 222.323 704.32 220.06 708.014 218.436C711.708 216.812 715.92 216 720.65 216C725.481 216 729.672 216.822 733.224 218.466C736.797 220.09 739.567 222.374 741.536 225.317C743.505 228.26 744.51 231.67 744.551 235.547H730.119Z" fill="#213F47" />
		<path d="M802.35 216.853H817.39V257.073C817.39 261.722 816.284 265.771 814.072 269.222C811.859 272.652 808.774 275.311 804.816 277.199C800.858 279.066 796.26 280 791.023 280C785.725 280 781.097 279.066 777.139 277.199C773.181 275.311 770.106 272.652 767.914 269.222C765.722 265.771 764.625 261.722 764.625 257.073V216.853H779.697V255.764C779.697 257.916 780.164 259.834 781.097 261.519C782.051 263.203 783.381 264.523 785.086 265.477C786.791 266.431 788.77 266.908 791.023 266.908C793.276 266.908 795.245 266.431 796.93 265.477C798.635 264.523 799.965 263.203 800.919 261.519C801.873 259.834 802.35 257.916 802.35 255.764V216.853Z" fill="#213F47" />
		<path d="M838.447 279.208V216.853H864.206C868.874 216.853 872.903 217.695 876.293 219.38C879.703 221.044 882.332 223.439 884.179 226.565C886.026 229.671 886.95 233.355 886.95 237.618C886.95 241.941 886.006 245.615 884.118 248.639C882.23 251.644 879.551 253.937 876.08 255.52C872.609 257.083 868.499 257.865 863.749 257.865H847.46V245.99H860.948C863.221 245.99 865.119 245.696 866.641 245.108C868.184 244.499 869.351 243.585 870.143 242.367C870.934 241.129 871.33 239.546 871.33 237.618C871.33 235.689 870.934 234.096 870.143 232.837C869.351 231.559 868.184 230.605 866.641 229.975C865.099 229.326 863.201 229.001 860.948 229.001H853.519V279.208H838.447ZM873.553 250.71L889.081 279.208H872.639L857.416 250.71H873.553Z" fill="#213F47" />
		<path d="M906.827 279.208V216.853H950.305V229.092H921.898V241.88H948.083V254.15H921.898V266.969H950.305V279.208H906.827Z" fill="#213F47" />
		<path d="M1005.06 235.547C1004.86 233.314 1003.95 231.579 1002.35 230.341C1000.77 229.082 998.503 228.453 995.56 228.453C993.611 228.453 991.987 228.707 990.688 229.214C989.389 229.722 988.415 230.422 987.765 231.315C987.116 232.188 986.781 233.193 986.761 234.329C986.72 235.263 986.903 236.085 987.309 236.795C987.735 237.506 988.344 238.135 989.135 238.683C989.947 239.211 990.922 239.678 992.058 240.084C993.195 240.49 994.474 240.845 995.895 241.149L1001.25 242.367C1004.34 243.037 1007.06 243.93 1009.41 245.047C1011.79 246.163 1013.78 247.493 1015.38 249.035C1017 250.578 1018.23 252.354 1019.07 254.363C1019.9 256.373 1020.32 258.626 1020.34 261.123C1020.32 265.061 1019.33 268.44 1017.36 271.262C1015.39 274.083 1012.56 276.245 1008.87 277.747C1005.19 279.249 1000.76 280 995.56 280C990.343 280 985.796 279.219 981.919 277.656C978.043 276.093 975.028 273.718 972.877 270.531C970.725 267.344 969.619 263.315 969.558 258.443H983.99C984.112 260.453 984.65 262.128 985.604 263.467C986.558 264.807 987.867 265.822 989.531 266.512C991.216 267.202 993.165 267.547 995.377 267.547C997.407 267.547 999.132 267.273 1000.55 266.725C1001.99 266.177 1003.1 265.416 1003.87 264.441C1004.64 263.467 1005.04 262.351 1005.06 261.092C1005.04 259.915 1004.67 258.91 1003.96 258.078C1003.25 257.226 1002.16 256.495 1000.67 255.886C999.214 255.257 997.346 254.678 995.073 254.15L988.557 252.628C983.158 251.39 978.905 249.39 975.8 246.63C972.694 243.849 971.151 240.094 971.172 235.364C971.151 231.508 972.187 228.128 974.277 225.226C976.368 222.323 979.26 220.06 982.955 218.436C986.649 216.812 990.861 216 995.59 216C1000.42 216 1004.61 216.822 1008.16 218.466C1011.74 220.09 1014.51 222.374 1016.48 225.317C1018.45 228.26 1019.45 231.67 1019.49 235.547H1005.06Z" fill="#213F47" />
		<path d="M451.468 131.529C451.265 129.298 450.362 127.564 448.76 126.327C447.179 125.07 444.918 124.441 441.977 124.441C440.03 124.441 438.408 124.695 437.11 125.202C435.812 125.708 434.839 126.408 434.19 127.3C433.541 128.172 433.207 129.176 433.186 130.312C433.146 131.245 433.328 132.066 433.734 132.776C434.16 133.485 434.768 134.114 435.559 134.662C436.37 135.189 437.343 135.655 438.479 136.061C439.615 136.466 440.892 136.821 442.312 137.125L447.665 138.342C450.748 139.011 453.465 139.904 455.817 141.019C458.19 142.134 460.177 143.463 461.779 145.004C463.402 146.545 464.629 148.319 465.46 150.327C466.292 152.335 466.717 154.586 466.738 157.08C466.717 161.014 465.724 164.39 463.757 167.209C461.79 170.028 458.961 172.188 455.27 173.688C451.599 175.189 447.169 175.939 441.977 175.939C436.766 175.939 432.223 175.158 428.35 173.597C424.477 172.035 421.465 169.663 419.316 166.479C417.166 163.295 416.061 159.27 416 154.403H430.418C430.54 156.411 431.077 158.084 432.03 159.422C432.984 160.76 434.292 161.774 435.954 162.464C437.638 163.153 439.584 163.498 441.795 163.498C443.823 163.498 445.546 163.224 446.966 162.677C448.406 162.129 449.511 161.369 450.281 160.395C451.052 159.422 451.447 158.307 451.468 157.049C451.447 155.873 451.082 154.869 450.373 154.038C449.663 153.186 448.568 152.456 447.087 151.848C445.627 151.219 443.762 150.641 441.49 150.114L434.981 148.593C429.587 147.356 425.338 145.359 422.236 142.601C419.133 139.823 417.592 136.071 417.612 131.346C417.592 127.493 418.626 124.117 420.715 121.217C422.804 118.317 425.693 116.056 429.384 114.433C433.075 112.811 437.283 112 442.008 112C446.834 112 451.022 112.821 454.57 114.464C458.139 116.086 460.907 118.368 462.875 121.308C464.842 124.248 465.845 127.655 465.886 131.529H451.468Z" fill="#CAA970" />
		<path d="M544.74 144C544.74 150.854 543.422 156.664 540.786 161.43C538.15 166.195 534.58 169.815 530.079 172.289C525.597 174.763 520.568 176 514.991 176C509.394 176 504.355 174.753 499.873 172.259C495.392 169.764 491.833 166.144 489.196 161.399C486.58 156.634 485.272 150.834 485.272 144C485.272 137.146 486.58 131.336 489.196 126.57C491.833 121.805 495.392 118.185 499.873 115.711C504.355 113.237 509.394 112 514.991 112C520.568 112 525.597 113.237 530.079 115.711C534.58 118.185 538.15 121.805 540.786 126.57C543.422 131.336 544.74 137.146 544.74 144ZM529.349 144C529.349 139.944 528.771 136.517 527.615 133.719C526.479 130.92 524.837 128.801 522.687 127.361C520.558 125.921 517.992 125.202 514.991 125.202C512.01 125.202 509.445 125.921 507.295 127.361C505.146 128.801 503.493 130.92 502.337 133.719C501.202 136.517 500.634 139.944 500.634 144C500.634 148.056 501.202 151.483 502.337 154.281C503.493 157.08 505.146 159.199 507.295 160.639C509.445 162.079 512.01 162.798 514.991 162.798C517.992 162.798 520.558 162.079 522.687 160.639C524.837 159.199 526.479 157.08 527.615 154.281C528.771 151.483 529.349 148.056 529.349 144Z" fill="#CAA970" />
		<path d="M618.15 112.852V175.148H605.374L580.583 139.194H580.188V175.148H565.131V112.852H578.089L602.606 148.745H603.123V112.852H618.15Z" fill="#CAA970" />
		<path d="M680.099 133.202C679.754 131.924 679.247 130.798 678.578 129.825C677.909 128.831 677.087 127.99 676.114 127.3C675.141 126.611 674.025 126.094 672.768 125.749C671.511 125.384 670.132 125.202 668.631 125.202C665.61 125.202 662.994 125.932 660.783 127.392C658.593 128.852 656.9 130.981 655.703 133.779C654.507 136.558 653.909 139.934 653.909 143.909C653.909 147.904 654.487 151.311 655.643 154.129C656.798 156.948 658.471 159.098 660.662 160.578C662.852 162.058 665.508 162.798 668.631 162.798C671.389 162.798 673.721 162.352 675.627 161.46C677.554 160.548 679.014 159.26 680.008 157.597C681.001 155.934 681.498 153.977 681.498 151.726L684.297 152.061H669.148V141.08H696.008V149.323C696.008 154.9 694.821 159.676 692.449 163.65C690.096 167.625 686.852 170.677 682.715 172.806C678.598 174.935 673.863 176 668.509 176C662.568 176 657.346 174.712 652.844 172.137C648.342 169.561 644.834 165.891 642.319 161.125C639.805 156.34 638.548 150.662 638.548 144.091C638.548 138.981 639.308 134.449 640.829 130.494C642.35 126.52 644.469 123.153 647.186 120.395C649.924 117.638 653.087 115.549 656.677 114.129C660.286 112.71 664.17 112 668.327 112C671.937 112 675.293 112.517 678.395 113.551C681.518 114.586 684.276 116.046 686.669 117.932C689.082 119.817 691.039 122.058 692.54 124.654C694.041 127.25 694.973 130.099 695.338 133.202H680.099Z" fill="#CAA970" />
		<path d="M192 255.67V188L264.96 166.72C278.613 162.738 288 150.222 288 136V114C288 112.895 287.105 112 286 112H192V112.01H96V112H2C0.895429 112 0 112.895 0 114V136C0 150.222 9.38667 162.738 23.04 166.72L96 188L110.56 192.25C122.58 195.67 133.78 201.04 143.79 208.01C172.93 228.26 192 261.98 192 300.15V255.67Z" fill="url(#paint0_radial)" />
		<path d="M190 0H98C96.8954 0 96 0.895429 96 2V48C96 74.5097 117.49 96 144 96C170.51 96 192 74.5097 192 48V2C192 0.895431 191.105 0 190 0Z" fill="#CAA970" />
		<path d="M192 300.15C192 261.98 172.93 228.26 143.79 208.01C133.78 201.04 122.58 195.67 110.56 192.25L96 188V301.695C96 303.207 96.4286 304.689 97.2361 305.967L142.309 377.333C143.094 378.575 144.906 378.575 145.691 377.333L190.764 305.967C191.571 304.689 192 303.207 192 301.695V300.15Z" fill="url(#paint1_linear)" />
	</g>
	<defs>
		<radialGradient id="paint0_radial" cx="0" cy="0" r="1" gradientUnits="userSpaceOnUse" gradientTransform="translate(220 229.5) rotate(-153.725) scale(265.425 406.284)">
			<stop stop-color="#EACD9C" />
			<stop offset="1" stop-color="#CCAB73" />
		</radialGradient>
		<linearGradient id="paint1_linear" x1="144" y1="188" x2="144" y2="380.01" gradientUnits="userSpaceOnUse">
			<stop stop-color="#B38D4B" />
			<stop offset="1" stop-color="#CCAB73" />
		</linearGradient>
		<clipPath id="clip0">
			<rect width="1020.34" height="380.01" fill="white" />
		</clipPath>
	</defs>
</svg>
