<svg width="82" height="102" viewBox="0 0 82 102" fill="none" xmlns="http://www.w3.org/2000/svg">
<path d="M62.5442 76.6209L58.437 74.1865L60.6773 61.6399L64.7846 64.0743L62.5442 76.6209Z" fill="#3F8DE0"/>
<path d="M63.1043 65.0106L58.9971 62.6699L60.0239 56.6774L64.2245 59.0182L63.1043 65.0106Z" fill="#3F8DE0"/>
<path d="M64.2244 59.0182L60.0239 56.6774L67.2115 52.464L71.4121 54.8984L64.2244 59.0182Z" fill="#61AEFF"/>
<path d="M71.4121 54.8984L68.145 73.3438L62.5442 76.6209L64.7845 64.0743L63.1043 65.0106L64.2244 59.0182L71.4121 54.8984Z" fill="#205C9B"/>
<path d="M80.56 44.4117L80.4667 44.5053L72.1589 50.8723L71.8788 50.4978L61.144 36.0785L60.864 35.704L69.2651 29.337C69.8252 28.8689 70.4786 28.6816 71.3187 28.588C74.6792 28.4943 79.0665 32.0523 81.0268 36.6403C82.5203 40.1047 82.2403 43.1009 80.56 44.4117Z" fill="#2A77C9"/>
<path d="M76.7329 50.7786L76.5462 50.8723L65.718 59.1119L65.4379 58.6437L51.5293 40.011L51.1559 39.5429L61.9841 31.3033C62.7309 30.7415 63.571 30.367 64.6912 30.367C69.0785 30.1797 74.6792 34.8613 77.2929 40.7601C79.3466 45.1608 78.9732 48.9996 76.7329 50.7786Z" fill="#61AEFF"/>
<path d="M65.8113 59.1118C65.8113 59.1118 50.9692 76.1528 46.3952 87.6694L17.3645 49.6551C17.3645 49.6551 37.5273 49.5614 51.2492 39.4492C51.996 38.8874 52.8361 38.5129 53.9563 38.5129C58.3436 38.3257 63.9443 43.0072 66.558 48.906C68.425 53.4939 68.0516 57.4265 65.8113 59.1118Z" fill="#E6E6E6"/>
<path d="M44.0616 90.572L43.6882 90.8529L40.5144 93.1937L39.861 92.351L11.8571 54.7111L11.1103 53.6812L14.4708 51.2468H14.5641C15.9643 50.1232 17.8312 49.4678 19.9782 49.3742C28.7528 48.9996 40.141 58.3628 45.3684 70.3476C49.1956 79.2426 48.4488 87.1076 44.0616 90.572Z" fill="#61AEFF"/>
<path d="M44.0616 90.572L43.6882 90.8529L40.5144 93.1937L39.861 92.351L11.8571 54.7111L11.1103 53.6812L14.4708 51.2468H14.5641C15.9643 50.1232 17.8312 49.4678 19.9782 49.3742C28.7528 48.9996 40.141 58.3628 45.3684 70.3476C49.1956 79.2426 48.4488 87.1076 44.0616 90.572Z" fill="#61AEFF"/>
<path d="M40.5138 93.1673C46.8274 88.5118 45.4353 75.8548 37.4045 64.8973C29.3737 53.9397 17.7453 48.8309 11.4317 53.4865C5.11811 58.142 6.51016 70.7989 14.5409 81.7565C22.5717 92.7141 34.2002 97.8229 40.5138 93.1673Z" fill="#3F8DE0"/>
<path d="M33.3267 90.2911C26.4191 90.572 17.4578 83.1751 13.4439 73.8119C9.33669 64.4488 11.6704 56.6774 18.578 56.3965C20.0715 56.3029 21.5651 56.5838 23.152 57.2392C29.0328 59.3927 35.287 65.4787 38.4608 72.8756C39.6743 75.7782 40.3277 78.4935 40.421 80.8343C40.7011 86.2649 38.0874 90.1038 33.3267 90.2911Z" fill="#E6E6E6"/>
<path d="M40.5143 80.8343C34.8202 80.3662 27.9125 74.4674 24.6454 66.9769C23.0585 63.2316 22.5918 59.8609 23.1519 57.2392C29.0327 59.3927 35.2869 65.4788 38.4607 72.8757C39.6742 75.6846 40.3276 78.3999 40.5143 80.8343Z" fill="#D9D9D9"/>
<path d="M27.6852 28.5862L12.0963 19.5975V1.52667L27.6852 10.5153V28.5862Z" fill="#E6E6E6"/>
<path d="M26.2849 11.358V26.1517L13.4031 18.7548V3.86745L26.2849 11.358Z" fill="#61AEFF"/>
<path d="M22.271 14.5414C22.271 16.2268 21.1508 19.1294 19.6573 18.2867C18.2571 17.444 17.0436 13.2306 17.0436 11.5452C17.0436 9.85988 18.1637 9.20446 19.6573 10.0471C21.1508 10.8898 22.271 12.8561 22.271 14.5414Z" fill="#E6E6E6"/>
<path d="M24.0446 24.8409L15.4567 19.8784C16.2968 18.6612 17.8837 18.474 19.7506 19.5039C21.5242 20.5339 23.1111 22.6874 24.0446 24.8409Z" fill="#E6E6E6"/>
<path d="M29.5521 27.4626L27.6852 28.5862V10.5153L29.5521 9.39171V27.4626Z" fill="#D9D9D9"/>
<path d="M12.0964 1.43304L13.9633 0.403091L29.5522 9.39171L27.6852 10.5153L12.0964 1.43304Z" fill="#F0F0F0"/>
</svg>
